<mxfile host="app.diagrams.net" agent="Mozilla/5.0 (Windows NT 10.0; Win64; x64) AppleWebKit/537.36 (KHTML, like Gecko) Chrome/136.0.0.0 Safari/537.36" version="27.0.6">
  <diagram name="Page-1" id="CHF78pWQQKjfBu5mnQFI">
    <mxGraphModel dx="1111" dy="517" grid="1" gridSize="10" guides="1" tooltips="1" connect="1" arrows="1" fold="1" page="1" pageScale="1" pageWidth="850" pageHeight="1100" math="0" shadow="0">
      <root>
        <mxCell id="0" />
        <mxCell id="1" parent="0" />
        <mxCell id="5Bz8RAG8Ax0xlL1bfkzE-1" value="Posjetitelji" style="shape=rectangle;rounded=1;whiteSpace=wrap;html=1;fillColor=#FFF2CC;strokeColor=#D6B656" vertex="1" parent="1">
          <mxGeometry x="680" y="120" width="120" height="60" as="geometry" />
        </mxCell>
        <mxCell id="5Bz8RAG8Ax0xlL1bfkzE-2" value="Zaposlenici muzeja" style="shape=rectangle;rounded=1;whiteSpace=wrap;html=1;fillColor=#D5E8D4;strokeColor=#82B366" vertex="1" parent="1">
          <mxGeometry x="1110" y="410" width="140" height="60" as="geometry" />
        </mxCell>
        <mxCell id="5Bz8RAG8Ax0xlL1bfkzE-3" value="Administrator" style="shape=rectangle;rounded=1;whiteSpace=wrap;html=1;fillColor=#F8CECC;strokeColor=#B85450" vertex="1" parent="1">
          <mxGeometry x="270" y="420" width="120" height="60" as="geometry" />
        </mxCell>
        <mxCell id="5Bz8RAG8Ax0xlL1bfkzE-4" value="" style="rounded=1;whiteSpace=wrap;html=1;direction=south;" vertex="1" parent="1">
          <mxGeometry x="610" y="320" width="290" height="290" as="geometry" />
        </mxCell>
        <mxCell id="5Bz8RAG8Ax0xlL1bfkzE-5" value="P1&#xa;Upravljanje rezervacijama" style="shape=rectangle;rounded=1;whiteSpace=wrap;html=1;fillColor=#DAE8FC;strokeColor=#6C8EBF" vertex="1" parent="1">
          <mxGeometry x="665" y="350" width="180" height="60" as="geometry" />
        </mxCell>
        <mxCell id="5Bz8RAG8Ax0xlL1bfkzE-6" value="P2&#xa;Upravljanje izložbama i edukacijama" style="shape=rectangle;rounded=1;whiteSpace=wrap;html=1;fillColor=#E1D5E7;strokeColor=#9673A6" vertex="1" parent="1">
          <mxGeometry x="665" y="435" width="180" height="60" as="geometry" />
        </mxCell>
        <mxCell id="5Bz8RAG8Ax0xlL1bfkzE-7" value="P3&#xa;Izvještavanje i analitika" style="shape=rectangle;rounded=1;whiteSpace=wrap;html=1;fillColor=#FFE6CC;strokeColor=#D79B00" vertex="1" parent="1">
          <mxGeometry x="665" y="510" width="180" height="60" as="geometry" />
        </mxCell>
        <mxCell id="5Bz8RAG8Ax0xlL1bfkzE-8" value="" style="endArrow=classic;html=1;rounded=0;exitX=1;exitY=0.25;exitDx=0;exitDy=0;entryX=0.39;entryY=1;entryDx=0;entryDy=0;entryPerimeter=0;" edge="1" parent="1" source="5Bz8RAG8Ax0xlL1bfkzE-3" target="5Bz8RAG8Ax0xlL1bfkzE-4">
          <mxGeometry width="50" height="50" relative="1" as="geometry">
            <mxPoint x="470" y="450" as="sourcePoint" />
            <mxPoint x="520" y="400" as="targetPoint" />
          </mxGeometry>
        </mxCell>
        <mxCell id="5Bz8RAG8Ax0xlL1bfkzE-9" value="" style="endArrow=classic;html=1;rounded=0;" edge="1" parent="1" target="5Bz8RAG8Ax0xlL1bfkzE-3">
          <mxGeometry width="50" height="50" relative="1" as="geometry">
            <mxPoint x="608" y="450" as="sourcePoint" />
            <mxPoint x="540" y="470" as="targetPoint" />
          </mxGeometry>
        </mxCell>
        <mxCell id="5Bz8RAG8Ax0xlL1bfkzE-10" value="" style="endArrow=classic;html=1;rounded=0;exitX=0.366;exitY=0.01;exitDx=0;exitDy=0;exitPerimeter=0;entryX=0;entryY=0.25;entryDx=0;entryDy=0;" edge="1" parent="1" source="5Bz8RAG8Ax0xlL1bfkzE-4" target="5Bz8RAG8Ax0xlL1bfkzE-2">
          <mxGeometry width="50" height="50" relative="1" as="geometry">
            <mxPoint x="970" y="450" as="sourcePoint" />
            <mxPoint x="1020" y="400" as="targetPoint" />
          </mxGeometry>
        </mxCell>
        <mxCell id="5Bz8RAG8Ax0xlL1bfkzE-11" value="" style="endArrow=classic;html=1;rounded=0;entryX=0.438;entryY=-0.007;entryDx=0;entryDy=0;entryPerimeter=0;exitX=-0.014;exitY=0.617;exitDx=0;exitDy=0;exitPerimeter=0;" edge="1" parent="1" source="5Bz8RAG8Ax0xlL1bfkzE-2" target="5Bz8RAG8Ax0xlL1bfkzE-4">
          <mxGeometry width="50" height="50" relative="1" as="geometry">
            <mxPoint x="980" y="520" as="sourcePoint" />
            <mxPoint x="1030" y="470" as="targetPoint" />
          </mxGeometry>
        </mxCell>
        <mxCell id="5Bz8RAG8Ax0xlL1bfkzE-12" value="" style="endArrow=classic;html=1;rounded=0;exitX=-0.014;exitY=0.617;exitDx=0;exitDy=0;exitPerimeter=0;entryX=0.325;entryY=1.033;entryDx=0;entryDy=0;entryPerimeter=0;" edge="1" parent="1" source="5Bz8RAG8Ax0xlL1bfkzE-4" target="5Bz8RAG8Ax0xlL1bfkzE-1">
          <mxGeometry width="50" height="50" relative="1" as="geometry">
            <mxPoint x="690" y="230" as="sourcePoint" />
            <mxPoint x="740" y="180" as="targetPoint" />
          </mxGeometry>
        </mxCell>
        <mxCell id="5Bz8RAG8Ax0xlL1bfkzE-13" value="" style="endArrow=classic;html=1;rounded=0;exitX=0.7;exitY=1.05;exitDx=0;exitDy=0;exitPerimeter=0;entryX=0;entryY=0.472;entryDx=0;entryDy=0;entryPerimeter=0;" edge="1" parent="1" source="5Bz8RAG8Ax0xlL1bfkzE-1" target="5Bz8RAG8Ax0xlL1bfkzE-4">
          <mxGeometry width="50" height="50" relative="1" as="geometry">
            <mxPoint x="750" y="230" as="sourcePoint" />
            <mxPoint x="800" y="180" as="targetPoint" />
          </mxGeometry>
        </mxCell>
        <mxCell id="5Bz8RAG8Ax0xlL1bfkzE-15" value="Upravljanje sadržajem (eksponati, izložbe, edukacije), postavke sustava, zahtjevi za izvještajima i analizama." style="text;whiteSpace=wrap;html=1;" vertex="1" parent="1">
          <mxGeometry x="400" y="355" width="170" height="50" as="geometry" />
        </mxCell>
        <mxCell id="5Bz8RAG8Ax0xlL1bfkzE-16" value="Potvrde unosa, pregled podataka sustava, generirani izvještaji, statistike i analitika poslovanja." style="text;whiteSpace=wrap;html=1;" vertex="1" parent="1">
          <mxGeometry x="430" y="470" width="110" height="40" as="geometry" />
        </mxCell>
        <mxCell id="5Bz8RAG8Ax0xlL1bfkzE-17" value="Upiti o radnom vremenu i događanjima, zahtjevi za informacijama o izložbama, zahtjevi za rezervaciju termina." style="text;whiteSpace=wrap;html=1;" vertex="1" parent="1">
          <mxGeometry x="790" y="210" width="184" height="50" as="geometry" />
        </mxCell>
        <mxCell id="5Bz8RAG8Ax0xlL1bfkzE-18" value="Informacije o muzeju, izložbama i događanjima, potvrde rezervacija, povratne informacije na upite." style="text;whiteSpace=wrap;html=1;" vertex="1" parent="1">
          <mxGeometry x="590" y="200" width="110" height="40" as="geometry" />
        </mxCell>
        <mxCell id="5Bz8RAG8Ax0xlL1bfkzE-19" value="Unos/ažuriranje detalja o eksponatima, evidencija održanih aktivnosti (radionice, grupne posjete), operativni podaci." style="text;whiteSpace=wrap;html=1;" vertex="1" parent="1">
          <mxGeometry x="940" y="465" width="130" height="50" as="geometry" />
        </mxCell>
        <mxCell id="5Bz8RAG8Ax0xlL1bfkzE-20" value="Raspored događanja i radnih zadataka, liste rezervacija i prijava, detaljne informacije o sadržaju za rad." style="text;whiteSpace=wrap;html=1;" vertex="1" parent="1">
          <mxGeometry x="905" y="360" width="200" height="50" as="geometry" />
        </mxCell>
      </root>
    </mxGraphModel>
  </diagram>
</mxfile>
